<svg xmlns="http://www.w3.org/2000/svg" viewBox="0 0 231.61 59.53"><defs><style>.cls-1{fill:#fff;}</style></defs><g id="Capa_2" data-name="Capa 2"><g id="Capa_1-2" data-name="Capa 1"><path class="cls-1" d="M227.09,5.92a1.11,1.11,0,0,0-1.21-1A1.14,1.14,0,0,0,224.73,6c0,.39.75,1.45,1,1.45.44,0,1.36-1,1.35-1.52Zm-3.65,5.58a1.27,1.27,0,0,0,.22.78c.91,1.42,2.47,1.11,3.49.15.19-.19,0-.31-.09-.42a25.69,25.69,0,0,1-1.91-2.13c-.1-.11-.16-.28-.4-.2a2.28,2.28,0,0,0-1.31,1.82Zm-2.05.37a3.31,3.31,0,0,1,1.78-3c.68-.45.68-.45.24-1.13-1.25-1.9-.46-3.7,1.78-4.1a3.62,3.62,0,0,1,2.46.38,2.24,2.24,0,0,1,.55,3.57,5.09,5.09,0,0,1-1.09.87c-.29.17-.4.32-.12.61s.73.83,1.08,1.25.53.46.71-.09a3.31,3.31,0,0,1,.37-.81.76.76,0,0,1,1-.4.85.85,0,0,1,.58,1,5.19,5.19,0,0,1-.68,1.71c-.15.25-.14.4.1.58s.72.59,1.08.89a.84.84,0,0,1,.2,1.19.87.87,0,0,1-1.23.31,5.43,5.43,0,0,1-1.07-.78.63.63,0,0,0-1,0,4.9,4.9,0,0,1-5.33.31A2.8,2.8,0,0,1,221.39,11.87Z"/><path class="cls-1" d="M89,52.47V47.66c0-.62,0-1.24,0-1.85a.94.94,0,0,1,.88-1,1,1,0,0,1,1,.88,4.34,4.34,0,0,1,0,.51v8.66a3.62,3.62,0,0,1,0,.57.92.92,0,0,1-.71.88,1,1,0,0,1-1.05-.43c-1.18-1.55-2.37-3.09-3.56-4.64a28.07,28.07,0,0,0-2.14-2.55v6.58a1,1,0,0,1-.84,1.07,1,1,0,0,1-1-1c0-1,0-1.91,0-2.86V46.38a3.75,3.75,0,0,1,0-.58,1,1,0,0,1,.72-.94.92.92,0,0,1,1,.43c.67.85,1.33,1.71,2,2.56q1.68,2.2,3.37,4.39C88.7,52.34,88.74,52.48,89,52.47Z"/><path class="cls-1" d="M148,31.61V25.44c0-.21,0-.42,0-.64a.79.79,0,0,1,.75-.8.85.85,0,0,1,1,.61,1.52,1.52,0,0,1,.08.56c0,3,0,6.07,0,9.11a1.28,1.28,0,0,1,0,.19,1,1,0,0,1-.69,1,.9.9,0,0,1-1.05-.4l-3.31-4.28-2.41-3.11v2.7c0,1.33,0,2.67,0,4,0,.69-.37,1.12-.93,1.13s-.94-.41-.94-1.13q0-4.61,0-9.23c0-.5.12-.94.66-1.11a1,1,0,0,1,1.19.5c1.7,2.23,3.4,4.45,5.12,6.66A1,1,0,0,0,148,31.61Z"/><path class="cls-1" d="M186.47,10.89V4.3c0-.82.28-1.18.9-1.2s1,.39,1,1.2c0,3,0,6,0,9.05,0,.54-.11,1-.7,1.21s-.88-.16-1.18-.55q-2.41-3.16-4.85-6.31L181.07,7c-.21.17-.12.37-.12.54,0,1.82,0,3.65,0,5.48a4.34,4.34,0,0,1,0,.51c-.07.71-.42,1.09-1,1.07s-.87-.38-.87-1.15c0-3.06,0-6.12,0-9.18,0-.5.06-.95.6-1.12s.91.11,1.24.54c1.71,2.25,3.44,4.48,5.16,6.71Z"/><path class="cls-1" d="M118.68,10.7V4.23a1,1,0,0,1,.6-1.08.93.93,0,0,1,1.28.9c0,3.17,0,6.33,0,9.49a1,1,0,0,1-.64,1,1,1,0,0,1-1.16-.44l-5.12-6.66c-.13-.16-.2-.37-.43-.44-.16.16-.08.36-.08.53,0,1.87,0,3.74,0,5.61a5.42,5.42,0,0,1,0,.57.89.89,0,0,1-1,.87.86.86,0,0,1-.88-.9c0-.53,0-1.06,0-1.59,0-2.59,0-5.18,0-7.77,0-.52.07-1,.64-1.18s.91.12,1.24.54q2.58,3.39,5.19,6.77C118.4,10.54,118.45,10.67,118.68,10.7Z"/><path class="cls-1" d="M178.17,27.24c0,1.52,0,1.52,1.49,1.47a1.55,1.55,0,0,0,1.55-1.52,1.46,1.46,0,0,0-1.58-1.39c-1.46,0-1.46,0-1.46,1.44Zm0,4.83c0,.4,0,.81,0,1.21s.11.41.41.41c.66,0,1.32,0,2,0a1.63,1.63,0,0,0,1.61-1.56,1.59,1.59,0,0,0-1.5-1.59c-.31,0-.63,0-1,0-1.53,0-1.53,0-1.53,1.56Zm-1.85-2.42V25.39c0-1.08.3-1.38,1.35-1.39q1.05,0,2.1,0a3.19,3.19,0,0,1,2.88,4.68c-.22.43-.15.62.2.91a3.24,3.24,0,0,1,.91,3.64,3.36,3.36,0,0,1-3,2.25q-1.53,0-3.06,0c-1,0-1.34-.4-1.35-1.37Z"/><path class="cls-1" d="M119.47,33.57a3.89,3.89,0,1,0-2.75-1.14,3.86,3.86,0,0,0,2.75,1.14Zm-5.76-3.92a5.78,5.78,0,1,1,5.76,5.81A5.8,5.8,0,0,1,113.71,29.65Z"/><path class="cls-1" d="M161.3,4.9h-1.08c-.28,0-.42.06-.42.38,0,.81,0,1.61,0,2.41,0,.27.09.39.37.38.69,0,1.39,0,2.09,0a1.58,1.58,0,0,0,1.53-1.61,1.62,1.62,0,0,0-1.67-1.55h-.83ZM158,8.85c0-1.43,0-2.85,0-4.27,0-1.13.41-1.55,1.52-1.54a27.08,27.08,0,0,1,3.12.06,3.39,3.39,0,0,1,2.94,2.61,3.2,3.2,0,0,1-1.45,3.57c-.42.26-.44.43-.21.82.54,1,1,2,1.54,2.92.36.7.25,1.19-.3,1.46s-1,.07-1.31-.6c-.61-1.14-1.24-2.27-1.8-3.43a.89.89,0,0,0-1-.59c-1.24,0-1.24,0-1.24,1.23v2.29c0,.76-.34,1.2-.92,1.2s-.92-.45-.92-1.21C158,11.86,158,10.35,158,8.85Z"/><path class="cls-1" d="M88.58,6.45c0,.4,0,.8,0,1.21s.07.42.39.41c.7,0,1.4,0,2.1,0a1.67,1.67,0,0,0,1.55-1.57A1.72,1.72,0,0,0,91,4.9h-.83c-1.54,0-1.54,0-1.54,1.55ZM86.78,8.9V4.31A1.11,1.11,0,0,1,88,3a29.33,29.33,0,0,1,3.38,0,3.38,3.38,0,0,1,3,2.64,3.16,3.16,0,0,1-1.46,3.56c-.45.26-.4.44-.2.81.55,1,1.07,2,1.58,3a.94.94,0,0,1-.34,1.41c-.49.25-1,0-1.28-.56-.62-1.17-1.26-2.32-1.83-3.5a.88.88,0,0,0-1-.57c-1.23,0-1.23,0-1.23,1.22V13.5c0,.65-.37,1.08-.91,1.07s-.89-.43-.89-1.09Z"/><path class="cls-1" d="M167.8,27.19c-.53,1.15-1,2.21-1.51,3.26-.12.27,0,.34.24.34h2.67c.25,0,.37-.08.24-.34C168.91,29.39,168.38,28.33,167.8,27.19Zm-4.46,8.3a.89.89,0,0,1-.78-1.36c.67-1.47,1.35-2.93,2-4.39L166.8,25c.19-.42.42-.79.95-.82s.78.33,1,.75c1.51,3,3,6,4.53,9.05a1.09,1.09,0,0,1,0,1.2.92.92,0,0,1-.9.36.93.93,0,0,1-.75-.61c-.31-.61-.62-1.21-.91-1.83a.61.61,0,0,0-.64-.39c-1.46,0-2.93,0-4.39,0a.58.58,0,0,0-.63.4c-.27.62-.57,1.23-.85,1.85A.89.89,0,0,1,163.34,35.49Z"/><path class="cls-1" d="M121.63,48.06c-.54,1.17-1,2.23-1.54,3.3-.17.36.08.33.3.33.85,0,1.69,0,2.54,0,.37,0,.51-.06.31-.45-.53-1-1-2-1.6-3.18Zm5.68,7.42a.92.92,0,0,1-.71.88.85.85,0,0,1-1-.45c-.34-.64-.66-1.28-1-1.93a.65.65,0,0,0-.69-.43c-1.46,0-2.93,0-4.39,0a.58.58,0,0,0-.63.39c-.26.61-.54,1.2-.83,1.79a.94.94,0,0,1-1.29.57,1,1,0,0,1-.37-1.37q2.13-4.57,4.25-9.17c.19-.41.41-.73.93-.74a1,1,0,0,1,1,.7q2.3,4.61,4.6,9.22A1,1,0,0,1,127.31,55.48Z"/><path class="cls-1" d="M80.83,27.17c-.58,1.24-1.11,2.39-1.67,3.62h3.08c.35,0,.33-.15.21-.39Zm5.68,7.37a.92.92,0,0,1-.63.91A.9.9,0,0,1,84.74,35c-.32-.59-.63-1.2-.91-1.82a.76.76,0,0,0-.82-.52c-1.4,0-2.8,0-4.2,0a.66.66,0,0,0-.73.45c-.25.61-.54,1.2-.83,1.79a.93.93,0,1,1-1.66-.8l4.28-9.24a1,1,0,0,1,.88-.72,1,1,0,0,1,1,.68l4.62,9.29A3.42,3.42,0,0,1,86.51,34.54Z"/><path class="cls-1" d="M157.9,50.52V46c0-.9.29-1.19,1.17-1.2h4.71c.77,0,1.17.35,1.16,1s-.4.91-1.13.91c-1.21,0-2.42,0-3.63,0-.35,0-.49.09-.48.46,0,.68,0,1.36,0,2,0,.46.19.51.56.51,1.17,0,2.34,0,3.51,0,.54,0,1,.13,1.16.75a.89.89,0,0,1-1,1.1c-1.23,0-2.46,0-3.69,0-.46,0-.59.13-.56.57a13.22,13.22,0,0,1,0,1.78c0,.54.18.63.65.62,1.15,0,2.29,0,3.44,0,.76,0,1.17.35,1.15,1s-.4.9-1.14.91H159c-.8,0-1.11-.34-1.11-1.13C157.9,53.66,157.91,52.09,157.9,50.52Z"/><path class="cls-1" d="M149.46,6.28,148,9.55c-.12.23-.16.41.19.41H151c.25,0,.31-.09.2-.31ZM145,14.65a.94.94,0,0,1-.78-1.41c.44-1,.91-2,1.38-3,1-2.06,1.91-4.11,2.86-6.17.19-.43.42-.81.94-.82s.8.38,1,.82q2.18,4.38,4.37,8.76c.08.15.16.3.23.46a.93.93,0,0,1-.4,1.25.92.92,0,0,1-1.25-.42c-.33-.62-.64-1.24-.93-1.88a.68.68,0,0,0-.72-.47c-1.44,0-2.89,0-4.33,0a.63.63,0,0,0-.67.43c-.27.63-.57,1.23-.85,1.85A1,1,0,0,1,145,14.65Z"/><path class="cls-1" d="M102.71,6.3c-.56,1.21-1.06,2.27-1.55,3.34-.18.39.14.31.32.32.87,0,1.74,0,2.61,0,.31,0,.44-.05.27-.38C103.83,8.54,103.32,7.5,102.71,6.3Zm0-3.07a1.25,1.25,0,0,1,1,.82q1.68,3.42,3.39,6.83c.38.76.76,1.52,1.13,2.28a.93.93,0,0,1-.32,1.37c-.51.27-1,.06-1.33-.57s-.62-1.21-.91-1.82a.53.53,0,0,0-.58-.36H100.6a.58.58,0,0,0-.62.41c-.27.62-.55,1.23-.85,1.84a.93.93,0,0,1-1.26.53.9.9,0,0,1-.39-1.3c1.43-3.14,2.89-6.27,4.33-9.41A1,1,0,0,1,102.66,3.23Z"/><path class="cls-1" d="M137,28.41c0,.91,0,1.82,0,2.74A3.83,3.83,0,0,1,134.87,35a4.58,4.58,0,0,1-4.78-.26,3.63,3.63,0,0,1-1.71-3.17c0-2.14,0-4.28,0-6.43,0-.72.35-1.1.95-1.1s1,.36,1,1.15v6a2.1,2.1,0,0,0,1.45,2.22,2.76,2.76,0,0,0,2.89-.62,2,2,0,0,0,.49-1.41q0-3.15,0-6.3a1,1,0,0,1,.84-1.08c.66-.06,1.06.3,1.07,1C137,26.16,137,27.28,137,28.41Z"/><path class="cls-1" d="M169,8.82V4.24c0-.9.25-1.16,1.13-1.16q2.39,0,4.77,0c.75,0,1.14.31,1.15.89s-.41.93-1.18.93c-1.17,0-2.33,0-3.5,0-.47,0-.58.14-.56.58a19.64,19.64,0,0,1,0,2c0,.38.13.47.48.46,1.19,0,2.38,0,3.56,0,.77,0,1.2.34,1.19.92s-.37.9-1.2.9c-1.14,0-2.29,0-3.44,0-.49,0-.62.15-.59.61,0,.64,0,1.28,0,1.91,0,.39.11.52.5.51,1.23,0,2.46,0,3.7,0,.65,0,1,.31,1,.86s-.38.93-1,.94h-5c-.74,0-1-.3-1-1.05Z"/><path class="cls-1" d="M127.8,3.24a4.9,4.9,0,0,1,3,.92,1,1,0,0,1,.37,1.37,1,1,0,0,1-1.4.16A3.28,3.28,0,0,0,127,5.14a1.62,1.62,0,0,0-1.33,1.51A1.58,1.58,0,0,0,127.29,8a10.37,10.37,0,0,1,2.08.25,3.32,3.32,0,0,1,2.47,3,3.18,3.18,0,0,1-2,3,5.21,5.21,0,0,1-5.65-1.11,1,1,0,0,1-.12-1.42.92.92,0,0,1,1.39.11,3.41,3.41,0,0,0,3.17.9A1.5,1.5,0,0,0,130,11.28a1.55,1.55,0,0,0-1.44-1.38c-.52-.08-1-.08-1.58-.14a3.24,3.24,0,0,1-3.09-3.33,3.58,3.58,0,0,1,3.33-3.19C127.41,3.23,127.6,3.24,127.8,3.24Z"/><path class="cls-1" d="M107.41,35.46a5.93,5.93,0,0,1-6-4,5.76,5.76,0,0,1,9.14-6.21c.55.45.67,1,.32,1.43s-.89.48-1.45.05a3.9,3.9,0,1,0-.13,6.09l.29-.25a.92.92,0,0,1,1.31.09.89.89,0,0,1-.09,1.31A5.58,5.58,0,0,1,107.41,35.46Z"/><path class="cls-1" d="M136.87,6.41V7.68c0,.18,0,.37.25.36a10.67,10.67,0,0,0,2.59-.1,1.5,1.5,0,0,0,1.12-1.69,1.66,1.66,0,0,0-1.59-1.37h-.82C136.87,4.88,136.87,4.88,136.87,6.41ZM135,8.81V4.48c0-1.06.41-1.47,1.45-1.47.87,0,1.74,0,2.61,0a3.52,3.52,0,0,1,3.65,3.52A3.5,3.5,0,0,1,139,9.87c-.55,0-1.1,0-1.65,0-.39,0-.52.1-.51.5,0,1.06,0,2.12,0,3.18a.93.93,0,0,1-1.4.89,1.11,1.11,0,0,1-.47-1C135,11.86,135,10.33,135,8.81Z"/><path class="cls-1" d="M94.32,35.46A5.77,5.77,0,1,1,97.9,25.14c.4.31.76.64.58,1.23a1,1,0,0,1-1.6.33A3.77,3.77,0,0,0,93,26.05a3.88,3.88,0,0,0-.5,7.05,3.76,3.76,0,0,0,4.15-.24l.4-.31a.92.92,0,0,1,1.31.07.9.9,0,0,1-.11,1.31,5.58,5.58,0,0,1-3.61,1.53Z"/><path class="cls-1" d="M197.13,3.07A5.8,5.8,0,0,1,201,4.39c.53.44.63.93.29,1.38s-.88.5-1.45.06a3.8,3.8,0,0,0-4.06-.59,3.68,3.68,0,0,0-2.34,3.22,3.68,3.68,0,0,0,1.94,3.73,3.78,3.78,0,0,0,4.15-.16c.18-.11.33-.26.5-.38a.92.92,0,0,1,1.18,1.4,5.42,5.42,0,0,1-3.36,1.51,5.76,5.76,0,0,1-1.74-11.37A7,7,0,0,1,197.13,3.07Z"/><path class="cls-1" d="M150,53.06l2-4.54c.41-.93.8-1.87,1.2-2.8.28-.64.75-.89,1.3-.68s.71.74.43,1.39c-1.33,3.09-2.68,6.18-4,9.27a1,1,0,0,1-.85.66,1,1,0,0,1-.94-.65q-2-4.66-4-9.34a.92.92,0,0,1,.45-1.33,1,1,0,0,1,1.27.62c.9,2.08,1.79,4.17,2.69,6.25Z"/><path class="cls-1" d="M208.06,11.47c.39-1.3-.36-2.48-1.33-3.62-.82-1-1.54-2-2.31-3a1,1,0,0,1,.09-1.42,1,1,0,0,1,1.38.31c.93,1.21,1.86,2.43,2.76,3.66.29.39.44.38.73,0,.89-1.17,1.81-2.31,2.72-3.46.45-.58,1-.71,1.46-.36s.44.93,0,1.52c-1.09,1.38-2.18,2.77-3.29,4.14a1.41,1.41,0,0,0-.35,1c0,1.13,0,2.25,0,3.37,0,.7-.32,1-.92,1s-.9-.36-.92-1.05S208.06,12.35,208.06,11.47Z"/><path class="cls-1" d="M223.35,32.62a4.15,4.15,0,0,0-1.29-3.85c-.81-.95-1.51-2-2.27-3-.44-.59-.43-1.19,0-1.52s1-.16,1.46.43c.9,1.18,1.82,2.35,2.69,3.55.31.42.44.35.72,0,.88-1.17,1.81-2.31,2.71-3.46.44-.56,1-.7,1.47-.35s.44.91,0,1.47c-1.1,1.4-2.2,2.81-3.32,4.19a1.36,1.36,0,0,0-.33,1c0,1.1,0,2.21,0,3.31,0,.69-.33,1.09-.88,1.11s-1-.36-1-1.07V32.62Z"/><path class="cls-1" d="M80.53,9.54c0,1.34,0,2.68,0,4a.93.93,0,0,1-.76,1,.86.86,0,0,1-1.05-.6,2,2,0,0,1-.07-.69c0-2.48,0-5,0-7.45,0-1,.13-.85-.89-.86-.49,0-1,0-1.47,0-.73,0-1.1-.34-1.1-1s.35-.92,1.1-.92H82.9c.74,0,1.1.32,1.1.93S83.63,5,82.89,5c-.57,0-1.15,0-1.72,0s-.67.1-.65.62C80.55,6.91,80.53,8.23,80.53,9.54Z"/><path class="cls-1" d="M211.45,30.39c0-1.35,0-2.71,0-4.07,0-.38-.1-.53-.5-.52-.68,0-1.36,0-2,0a.91.91,0,0,1-1-.95.88.88,0,0,1,1-.86h6.94a.9.9,0,1,1,0,1.8c-.57,0-1.14,0-1.72,0-.83,0-.83,0-.83.8V34a4.34,4.34,0,0,1,0,.51.95.95,0,1,1-1.89,0C211.44,33.11,211.45,31.75,211.45,30.39Z"/><path class="cls-1" d="M157.93,30.42c0,1.32,0,2.64,0,3.95,0,.71-.37,1.13-.94,1.11s-.89-.38-.89-1.08V26.63c0-.82,0-.82-.84-.82-.58,0-1.15,0-1.72,0a.94.94,0,0,1-1-.9.89.89,0,0,1,.93-.91c2.34,0,4.67,0,7,0a.9.9,0,0,1,.94.91.93.93,0,0,1-1,.9c-.68,0-1.36,0-2,0-.43,0-.55.13-.54.55C158,27.71,157.93,29.07,157.93,30.42Z"/><path class="cls-1" d="M103,51.28c0-1.27,0-2.54,0-3.82,0-.59-.1-.84-.75-.78a15.1,15.1,0,0,1-1.78,0,.94.94,0,0,1-1-.91.89.89,0,0,1,1-.9q3.43,0,6.87,0a.9.9,0,0,1,1,.9.93.93,0,0,1-1,.91c-.63,0-1.27,0-1.91,0-.47,0-.61.1-.61.59,0,2.54,0,5.09,0,7.64,0,1-.29,1.45-.92,1.45s-.91-.44-.91-1.46Z"/><path class="cls-1" d="M133.59,51.33v3.88c0,.74-.31,1.14-.89,1.16s-.92-.44-.92-1.19c0-2.63,0-5.27,0-7.9,0-.48-.14-.62-.61-.59-.64,0-1.28,0-1.91,0a.93.93,0,0,1-1-.91.9.9,0,0,1,1-.9q3.44,0,6.88,0a.89.89,0,0,1,1,.9.94.94,0,0,1-1,.91c-.68,0-1.36,0-2,0-.39,0-.51.1-.51.5C133.6,48.57,133.59,50,133.59,51.33Z"/><path class="cls-1" d="M193,29.75c0-1.57,0-3.14,0-4.71,0-.7.48-1.14,1.08-1s.73.48.73,1c0,2.65,0,5.31,0,8,0,.58.16.72.71.7,1.21-.05,2.42,0,3.63,0,.69,0,1,.28,1,.84s-.37.94-1,1l-5,0A1,1,0,0,1,193,34.4C193,32.85,193,31.3,193,29.75Z"/><path class="cls-1" d="M189.25,29.67v4.65a1,1,0,0,1-.81,1.12c-.6.12-1.07-.37-1.08-1.1,0-1.34,0-2.67,0-4V25.11c0-.74.36-1.19.93-1.2s1,.44,1,1.18C189.26,26.62,189.25,28.15,189.25,29.67Z"/><path class="cls-1" d="M94.59,50.59V46c0-.75.34-1.2.91-1.22s1,.43,1,1.23v9.09c0,.78-.32,1.2-.9,1.21s-1-.42-1-1.22Z"/><path class="cls-1" d="M111.27,50.55c0-1.54,0-3.09,0-4.64,0-.75.47-1.22,1.07-1.1a.92.92,0,0,1,.81,1q0,4.77,0,9.54a.93.93,0,0,1-.94,1,1,1,0,0,1-.94-1.06C111.26,53.69,111.27,52.12,111.27,50.55Z"/><path class="cls-1" d="M142,50.64v4.52c0,.73-.38,1.18-1,1.16s-.93-.46-.93-1.14c0-3.07,0-6.15,0-9.22,0-.74.38-1.19,1-1.17s.92.45.93,1.21Z"/><path class="cls-1" d="M205,29.69V34.4a.92.92,0,1,1-1.81,0V24.94A.92.92,0,1,1,205,25Z"/><path class="cls-1" d="M77.76,50.56c0,1.57,0,3.14,0,4.71,0,.7-.37,1.06-1,1a.82.82,0,0,1-.82-.93q0-4.8,0-9.61a.9.9,0,0,1,.9-1,.93.93,0,0,1,.92,1C77.76,47.38,77.76,49,77.76,50.56Z"/><path class="cls-1" d="M50.77,20.93a1.29,1.29,0,0,0-1.66-.22,1.23,1.23,0,0,0-.29,1.58,2.28,2.28,0,0,0,.53.67c1.59,1.59,3.18,3.17,4.76,4.77.19.19.5.32.48.68l-.25,0-22.83,0c-.61,0-.76-.2-.75-.78,0-7.53,0-15.06,0-22.6,0-.22-.12-.54.12-.65s.44.22.61.39c1.71,1.69,3.4,3.4,5.11,5.09a1.15,1.15,0,0,0,1.8,0,1.11,1.11,0,0,0-.13-1.67L30.48.47a1.09,1.09,0,0,0-1.77,0q-4,3.95-7.91,7.91a1.07,1.07,0,0,0-.05,1.71,1.29,1.29,0,0,0,1.84-.2,10.64,10.64,0,0,1,.84-.94c.78-.7,1.5-1.46,2.22-2.22S27.42,5,28.39,4.05v.76c0,7.55,0,15.11,0,22.67,0,.76-.19,1-1,1-7.5,0-15,0-22.51,0-.22,0-.47.08-.69-.08.09-.31.35-.46.55-.66l5.14-5.15a1.11,1.11,0,0,0,.1-1.62,1.17,1.17,0,0,0-1.7-.1c-.1.09-.19.19-.28.28L.46,28.7a1.18,1.18,0,0,0,0,1.86c1.2,1.21,2.42,2.4,3.63,3.62,1.41,1.41,2.8,2.84,4.21,4.26a1.16,1.16,0,0,0,1.69.08,1.09,1.09,0,0,0,0-1.62c-.42-.46-.89-.89-1.33-1.34l-3.94-4c-.19-.19-.59-.33-.47-.63s.47-.13.72-.13q11.25,0,22.52,0c.72,0,.93.19.92.92,0,7.67,0,15.33,0,23v.88c-.78-.81-1.39-1.46-2-2.08-1.32-1.27-2.52-2.67-3.93-3.86-.7-.59-1.26-.63-1.73-.13s-.5,1.1.18,1.78L28.55,59c.75.75,1.29.75,2,0l3-3c1.53-1.53,3.07-3.06,4.59-4.6.68-.68.69-1.3.09-1.85s-1.11-.44-1.75.19c-1.61,1.6-3.21,3.21-4.83,4.81-.25.25-.48.76-.83.63s-.08-.7-.13-1.06,0-.53,0-.79q0-10.78,0-21.57c0-.66.12-.92.86-.92,7.53,0,15.06,0,22.6,0,.18,0,.42-.12.65.28a8.75,8.75,0,0,0-.89.72c-1.62,1.6-3.22,3.22-4.83,4.82a1.44,1.44,0,0,0-.39,1.52c.12.46.53.55.91.66.53.16.84-.22,1.15-.53l7.46-7.46c1-1,1-1.3,0-2.28C55.78,26,53.16,23.59,50.77,20.93Z"/><path class="cls-1" d="M22.45,45.44c1,0,1.51-.42,1.51-1.2s-.53-1.19-1.53-1.19c-1.93,0-3.86,0-5.79,0-.52,0-.67-.14-.67-.66,0-1.93,0-3.86,0-5.79,0-1-.41-1.52-1.19-1.53s-1.24.55-1.24,1.51c0,2.51,0,5,0,7.53,0,.88.48,1.32,1.39,1.32h7.46Z"/><path class="cls-1" d="M18.72,45.44h0Z"/><path class="cls-1" d="M13.61,22.57c0,.84.46,1.39,1.16,1.39A1.22,1.22,0,0,0,16,22.6c0-1.53,0-3.07,0-4.6,0-2,0-2,2-2,1.53,0,3.06,0,4.6,0,.87,0,1.37-.48,1.38-1.19a1.2,1.2,0,0,0-1.26-1.23c-2.61,0-5.23,0-7.84,0a1.19,1.19,0,0,0-1.25,1.32v3.88C13.61,20,13.6,21.3,13.61,22.57Z"/><path class="cls-1" d="M13.61,22.57V18.76C13.61,20,13.6,21.3,13.61,22.57Z"/><path class="cls-1" d="M44.51,35.08c-.74,0-1.19.55-1.19,1.45,0,1.93,0,3.86,0,5.78,0,.58-.13.77-.74.76-1.9,0-3.81,0-5.7,0-1,0-1.52.4-1.53,1.18s.37,1.16,1.48,1.19,2.43,0,3.65,0v0h3.56c1.38,0,1.67-.32,1.68-1.68,0-2.4,0-4.8,0-7.21C45.72,35.62,45.25,35.08,44.51,35.08Z"/><path class="cls-1" d="M40.39,13.56H38.24a20.06,20.06,0,0,0-2.05.07,1,1,0,0,0-.95,1.17,1.06,1.06,0,0,0,1,1.11c.24,0,.47,0,.71.05,1.8,0,3.6,0,5.4,0,.69,0,.86.19.84.84,0,1.93,0,3.86,0,5.79A1.24,1.24,0,0,0,44.42,24a1.17,1.17,0,0,0,1.16-1.32c0-2.57,0-5.13,0-7.7,0-1-.46-1.35-1.45-1.36C42.87,13.55,41.63,13.56,40.39,13.56Z"/><path class="cls-1" d="M40.39,13.56h0Z"/></g></g></svg>